<svg xmlns="http://www.w3.org/2000/svg" width="101.784" height="26.704" viewBox="0 0 101.784 26.704">
  <defs>
    <style>
      .cls-1 {
        fill: #707070;
      }
    </style>
  </defs>
  <g id="그룹_533" data-name="그룹 533" transform="translate(-72.162 -482.211)">
    <path id="패스_269" data-name="패스 269" class="cls-1" d="M317.037,552.081a5.388,5.388,0,0,0-1.378-.651q-.762-.239-1.557-.445t-1.54-.462a4.666,4.666,0,0,1-1.362-.736,4.5,4.5,0,0,1-1.856-2.651,4.827,4.827,0,0,1,.284-2.367,3.922,3.922,0,0,1,.952-1.447,6.16,6.16,0,0,1,.893-.72,5.956,5.956,0,0,1,1.657-.744,6.668,6.668,0,0,1,1.832-.325,9.106,9.106,0,0,1,1.784.1,10.855,10.855,0,0,1,1.168.291,5.561,5.561,0,0,1,1.151.5,4.281,4.281,0,0,1,.973.771,2.72,2.72,0,0,1,.632,1.147,1.8,1.8,0,0,1,.049.856,1.421,1.421,0,0,1-.324.685,1.491,1.491,0,0,1-.616.411,1.542,1.542,0,0,1-.794.068,3.887,3.887,0,0,1-.908-.308q-.422-.205-.843-.445a6.687,6.687,0,0,0-.859-.411,2.519,2.519,0,0,0-.924-.171,2.083,2.083,0,0,0-1.232.274,1.6,1.6,0,0,0-.665.753,1.235,1.235,0,0,0,.032.959,1.887,1.887,0,0,0,.892.891,6.138,6.138,0,0,0,1.362.548q.746.205,1.476.411t1.427.48a4.279,4.279,0,0,1,1.248.753,3.787,3.787,0,0,1,1.313,2.158,4.764,4.764,0,0,1-.146,2.432,5.129,5.129,0,0,1-1.346,2.124,4.777,4.777,0,0,1-2.254,1.233,9.489,9.489,0,0,1-2.027.206,9.637,9.637,0,0,1-2.14-.24,7.97,7.97,0,0,1-2.011-.754,5.3,5.3,0,0,1-1.605-1.3,1.979,1.979,0,0,1-.47-1.25,2.5,2.5,0,0,1,.26-1.233,1.5,1.5,0,0,1,.795-.736,1.227,1.227,0,0,1,1.167.24,8.913,8.913,0,0,0,1.232.736,8.218,8.218,0,0,0,1.427.565,4.964,4.964,0,0,0,1.378.206,2.106,2.106,0,0,0,1.151-.308,1.449,1.449,0,0,0,.746-1.113A1.077,1.077,0,0,0,317.037,552.081Z" transform="translate(-198.836 -49.732)"/>
    <path id="패스_270" data-name="패스 270" class="cls-1" d="M402.083,521.052q.032.646.032,1.339t-.032,1.275q-.032.871-.1,1.6a4.569,4.569,0,0,1-.258,1.227,1.437,1.437,0,0,1-.6.742,1.7,1.7,0,0,1-1.113.145,1.319,1.319,0,0,1-1.065-.71,4.289,4.289,0,0,1-.436-1.4,8.74,8.74,0,0,1-.081-1.6,12.265,12.265,0,0,0,0-1.259q-.033-.709-.048-1.63a9.042,9.042,0,0,0-.194-1.743,3.709,3.709,0,0,0-.6-1.4,1.531,1.531,0,0,0-1.259-.613,3.936,3.936,0,0,0-1.63.161,1.608,1.608,0,0,0-.823.662,2.4,2.4,0,0,0-.307,1.049q-.049.613-.146,1.323l-.032,1.259v2.356q0,.581-.016,1.21a3.513,3.513,0,0,1-.21,1.146,2.153,2.153,0,0,1-.6.871,1.734,1.734,0,0,1-1.178.355,1.672,1.672,0,0,1-1.436-.629,2.55,2.55,0,0,1-.468-1.565V506.657c0-.129.005-.253.016-.371s.027-.242.048-.371a2.771,2.771,0,0,0,.1-.371,1.7,1.7,0,0,1,.1-.339.882.882,0,0,1,.323-.484,1.675,1.675,0,0,1,.323-.258,1.006,1.006,0,0,1,.355-.129,3.386,3.386,0,0,1,.355-.048c.129-.01.258-.016.387-.016a1.708,1.708,0,0,1,.936.291,3.139,3.139,0,0,1,.355.274,1.009,1.009,0,0,1,.258.4,3,3,0,0,1,.258,1.162,3.608,3.608,0,0,1,.048.468q.016.307.016.629c0,.215,0,.425.016.629s.016.361.016.468v.161q.032,1.033.032,2.1v2.711a8.628,8.628,0,0,1,2.84-.436,5.991,5.991,0,0,1,2.646.6,5.611,5.611,0,0,1,1.824,1.388,5.078,5.078,0,0,1,.92,1.711,7.946,7.946,0,0,1,.339,2Q402.051,519.89,402.083,521.052Z" transform="translate(-266.077 -18.495)"/>
    <path id="패스_271" data-name="패스 271" class="cls-1" d="M477.464,542.488a9.863,9.863,0,0,1,2.424-.808,8.264,8.264,0,0,1,2.511-.105,8.136,8.136,0,0,1,2.424.667,7.549,7.549,0,0,1,2.16,1.475,7.951,7.951,0,0,1,1.405,1.95,10.509,10.509,0,0,1,.878,2.23,7.6,7.6,0,0,1,.176,3.9A11.779,11.779,0,0,1,488,555.45a6.208,6.208,0,0,1-1.212,1.387,7.048,7.048,0,0,1-1.528,1,8.493,8.493,0,0,1-2.283.685,9.711,9.711,0,0,1-2.389.088,7.922,7.922,0,0,1-3.706-1.054,7.717,7.717,0,0,1-2.564-2.424,8.461,8.461,0,0,1-1.264-3.354,9.159,9.159,0,0,1,.228-3.846,9.054,9.054,0,0,1,1.633-3.425A7.3,7.3,0,0,1,477.464,542.488Zm1.054,4.707a3.218,3.218,0,0,0-.808,1.229,5.666,5.666,0,0,0-.351,1.528,4.8,4.8,0,0,0,.123,1.581,4.438,4.438,0,0,0,.615,1.422,2.57,2.57,0,0,0,1.265.878,6.541,6.541,0,0,0,1.9.422,2.739,2.739,0,0,0,1.967-.615,4.4,4.4,0,0,0,1.282-1.7,5.142,5.142,0,0,0,.4-2.213,4.377,4.377,0,0,0-.632-2.178,2.539,2.539,0,0,0-1.177-1.036,4.1,4.1,0,0,0-1.581-.351,4.9,4.9,0,0,0-1.633.246A3.6,3.6,0,0,0,478.518,547.2Z" transform="translate(-336.05 -49.732)"/>
    <path id="패스_272" data-name="패스 272" class="cls-1" d="M600.753,542.4a2.282,2.282,0,0,1,.215,1.419,14.1,14.1,0,0,1-.348,2.067q-.266,1.1-.629,2.172t-.6,1.769q-.564,1.612-.993,3.012t-1.027,3.083q-.2.49-.381.981a4.537,4.537,0,0,1-.431.876,2.262,2.262,0,0,1-.6.631,1.432,1.432,0,0,1-.845.245,1.326,1.326,0,0,1-.977-.42,3.519,3.519,0,0,1-.7-1.051,9.861,9.861,0,0,1-.48-1.331q-.2-.7-.331-1.226-.431-1.541-.762-2.82t-.6-2.294q-.3,1.016-.6,2.207t-.762,2.7q-.133.526-.331,1.279a10.659,10.659,0,0,1-.48,1.419,4.211,4.211,0,0,1-.7,1.139,1.069,1.069,0,0,1-.977.4,1.908,1.908,0,0,1-1.375-.683,6.121,6.121,0,0,1-.994-1.559,15.356,15.356,0,0,1-.712-1.892q-.3-.98-.5-1.716-.265-.946-.629-2.1t-.712-2.364q-.348-1.208-.646-2.417a15.731,15.731,0,0,1-.4-2.224,2.029,2.029,0,0,1,.248-1.226,1.774,1.774,0,0,1,.828-.788,1.752,1.752,0,0,1,1.126-.088,1.928,1.928,0,0,1,1.11.841,3.929,3.929,0,0,1,.48.876,9.661,9.661,0,0,1,.381,1.138q.166.613.331,1.244t.331,1.226q.364,1.332.613,2.084l.513,1.559q.231-.805.48-1.559t.613-2.084q.132-.42.315-.963t.4-1.033a6.655,6.655,0,0,1,.5-.928,2.077,2.077,0,0,1,.613-.648,1.3,1.3,0,0,1,1.325-.263,2.442,2.442,0,0,1,1.026.893,7.031,7.031,0,0,1,.745,1.454q.314.823.513,1.489.2.7.364,1.209t.3.928q.132.42.248.806t.248.806q.132-.42.248-.806t.248-.806q.132-.42.3-.928t.364-1.209q.132-.455.281-1.051t.315-1.209q.165-.612.348-1.173a4.568,4.568,0,0,1,.414-.946,2.018,2.018,0,0,1,.629-.648,1.912,1.912,0,0,1,.828-.315,1.788,1.788,0,0,1,.878.123A1.659,1.659,0,0,1,600.753,542.4Z" transform="translate(-427.04 -49.747)"/>
    <g id="그룹_533-2" data-name="그룹 533" transform="translate(93.186 491.792)">
      <path id="패스_273" data-name="패스 273" class="cls-1" d="M218.4,547.589a10.352,10.352,0,0,0-.865-2.2,7.824,7.824,0,0,0-1.384-1.921,7.43,7.43,0,0,0-2.128-1.453,8.014,8.014,0,0,0-1.417-.481.47.47,0,0,0-.575.459v3.791a.477.477,0,0,0,.292.435h0a2.5,2.5,0,0,1,1.159,1.021,4.311,4.311,0,0,1,.623,2.146,5.07,5.07,0,0,1-.4,2.18,4.34,4.34,0,0,1-1.263,1.678,2.7,2.7,0,0,1-1.938.606,6.442,6.442,0,0,1-1.869-.415,2.531,2.531,0,0,1-1.246-.865,4.37,4.37,0,0,1-.606-1.4,4.725,4.725,0,0,1-.121-1.557,5.576,5.576,0,0,1,.346-1.505,3.172,3.172,0,0,1,.8-1.211,3.375,3.375,0,0,1,.954-.623.463.463,0,0,0,.271-.424v-3.76a.471.471,0,0,0-.593-.455,9.624,9.624,0,0,0-1.671.625,7.2,7.2,0,0,0-2.509,1.99,8.919,8.919,0,0,0-1.609,3.374,9.025,9.025,0,0,0-.225,3.789,8.333,8.333,0,0,0,1.246,3.3A7.6,7.6,0,0,0,206.2,557.1a7.806,7.806,0,0,0,3.651,1.038,9.573,9.573,0,0,0,2.353-.086,8.38,8.38,0,0,0,2.249-.675,6.942,6.942,0,0,0,1.505-.986,6.123,6.123,0,0,0,1.194-1.367,11.612,11.612,0,0,0,1.419-3.6A7.49,7.49,0,0,0,218.4,547.589Z" transform="translate(-202.32 -541.524)"/>
      <rect id="사각형_286" data-name="사각형 286" class="cls-1" width="1.957" height="8.992" rx="0.979" transform="translate(7.181 0)"/>
    </g>
    <path id="패스_274" data-name="패스 274" class="cls-1" d="M123.792,524.595a1.829,1.829,0,0,0,.34,2.442,5.2,5.2,0,0,1,1.718,4.191,6.244,6.244,0,0,1-.678,2.882,5.69,5.69,0,0,1-1.95,2.176,6.863,6.863,0,0,1-2.614.989,16.983,16.983,0,0,1-2.868.254h-3.815a1.837,1.837,0,0,1-1.837-1.836h0a1.837,1.837,0,0,1,1.837-1.837h4.069a8.909,8.909,0,0,0,1.413-.113,4.112,4.112,0,0,0,1.272-.41,2.407,2.407,0,0,0,.918-.848,2.548,2.548,0,0,0,.353-1.4,2.368,2.368,0,0,0-.353-1.328,2.875,2.875,0,0,0-.9-.876,3.81,3.81,0,0,0-1.243-.48,6.869,6.869,0,0,0-1.37-.141h-4.154a1.837,1.837,0,0,1-1.837-1.837h0a1.837,1.837,0,0,1,1.837-1.837h3.589a7.616,7.616,0,0,0,1.13-.085,2.811,2.811,0,0,0,1-.339,2.107,2.107,0,0,0,.72-.692,2.082,2.082,0,0,0,.283-1.144,2.2,2.2,0,0,0-.254-1.116,2.034,2.034,0,0,0-.678-.706,2.9,2.9,0,0,0-.975-.382,5.563,5.563,0,0,0-1.116-.113h-3.7a1.837,1.837,0,0,1-1.837-1.837h0a1.837,1.837,0,0,1,1.837-1.837h2.741q.819,0,1.639.042a9.875,9.875,0,0,1,1.6.212,7.908,7.908,0,0,1,1.512.495A5.132,5.132,0,0,1,122.8,518a5.018,5.018,0,0,1,1.3,1.78,5.224,5.224,0,0,1,.48,2.147A4.484,4.484,0,0,1,123.792,524.595Z" transform="translate(-33.478 -28.613)"/>
    <ellipse id="타원_42" data-name="타원 42" class="cls-1" cx="1.678" cy="1.777" rx="1.678" ry="1.777" transform="translate(72.162 482.211)"/>
    <circle id="타원_43" data-name="타원 43" class="cls-1" cx="1.777" cy="1.777" r="1.777" transform="translate(81.048 482.211)"/>
  </g>
</svg>
